HIERARCHY
ROOT Hips
{
    OFFSET 0.000000 0.000000 0.000000
    CHANNELS 6 Xposition Yposition Zposition Zrotation Xrotation Yrotation
    JOINT Chest
    {
        OFFSET -0.000000 0.078597 0.000000
        CHANNELS 3 Zrotation Xrotation Yrotation
        JOINT Chest2
        {
            OFFSET -0.000000 0.230468 0.000000
            CHANNELS 3 Zrotation Xrotation Yrotation
            JOINT Neck
            {
                OFFSET -0.000000 0.249638 0.000000
                CHANNELS 3 Zrotation Xrotation Yrotation
                JOINT Head
                {
                    OFFSET -0.000000 0.103998 0.019170
                    CHANNELS 3 Zrotation Xrotation Yrotation
                    End Site
                    {
                        OFFSET -0.000000 0.191701 0.000000
                    }
                }
            }
            JOINT LeftCollar
            {
                OFFSET 0.038274 0.205938 -0.001496
                CHANNELS 3 Zrotation Xrotation Yrotation
                JOINT LeftShoulder
                {
                    OFFSET 0.132388 0.000000 0.000000
                    CHANNELS 3 Zrotation Xrotation Yrotation
                    JOINT LeftElbow
                    {
                        OFFSET 0.250301 0.000000 0.000000
                        CHANNELS 3 Zrotation Xrotation Yrotation
                        JOINT LeftWrist
                        {
                            OFFSET 0.285291 0.000000 0.000000
                            CHANNELS 3 Zrotation Xrotation Yrotation
                            End Site
                            {
                                OFFSET 0.000000 -0.143776 0.000000
                            }
                        }
                    }
                }
            }
            JOINT RightCollar
            {
                OFFSET -0.038406 0.205938 -0.001496
                CHANNELS 3 Zrotation Xrotation Yrotation
                JOINT RightShoulder
                {
                    OFFSET -0.132388 0.000000 0.000000
                    CHANNELS 3 Zrotation Xrotation Yrotation
                    JOINT RightElbow
                    {
                        OFFSET -0.250301 0.000000 0.000000
                        CHANNELS 3 Zrotation Xrotation Yrotation
                        JOINT RightWrist
                        {
                            OFFSET -0.285291 0.000000 0.000000
                            CHANNELS 3 Zrotation Xrotation Yrotation
                            End Site
                            {
                                OFFSET -0.000000 -0.143776 0.000000
                            }
                        }
                    }
                }
            }
        }
    }
    JOINT LeftHip
    {
        OFFSET 0.095851 0.000000 0.000000
        CHANNELS 3 Zrotation Xrotation Yrotation
        JOINT LeftKnee
        {
            OFFSET -0.000000 -0.406444 0.000000
            CHANNELS 3 Zrotation Xrotation Yrotation
            JOINT LeftAnkle
            {
                OFFSET -0.000000 -0.408443 0.000000
                CHANNELS 3 Zrotation Xrotation Yrotation
                JOINT LeftToe
                {
                    OFFSET -0.000000 -0.062303 0.143776
                    CHANNELS 3 Zrotation Xrotation Yrotation
                    End Site
                    {
                        OFFSET -0.000000 0.000000 0.038340
                    }
                }
            }
        }
    }
    JOINT RightHip
    {
        OFFSET -0.095851 0.000000 0.000000
        CHANNELS 3 Zrotation Xrotation Yrotation
        JOINT RightKnee
        {
            OFFSET -0.000000 -0.406444 0.000000
            CHANNELS 3 Zrotation Xrotation Yrotation
            JOINT RightAnkle
            {
                OFFSET -0.000000 -0.408443 0.000000
                CHANNELS 3 Zrotation Xrotation Yrotation
                JOINT RightToe
                {
                    OFFSET -0.000000 -0.062303 0.143776
                    CHANNELS 3 Zrotation Xrotation Yrotation
                    End Site
                    {
                        OFFSET -0.000000 0.000000 0.038340
                    }
                }
            }
        }
    }
}
MOTION
Frames:    5
Frame Time:    0.016667
0.140218    0.864783    0.308487    -1.630891    -1.139211    -137.390961    4.221359    10.287834    4.003371    -7.517053    4.082524    1.728608    2.590482    -0.228784    -15.398342    -1.319008    -1.265832    -15.416149    7.019293    -3.271402    -26.087969    -33.819664    56.208420    -46.098042    -0.197819    -5.390325    -13.000943    106.216660    -15.698397    7.663332    -4.621033    -18.870386    29.779591    38.484158    50.403175    49.417908    12.304103    -7.615227    94.967247    -70.181541    0.766467    -20.839233    6.231151    -12.622522    3.286194    -13.377780    24.877666    17.790119    -0.085190    -17.292736    11.490246    0.000000    0.000000    0.000000    -4.450320    -6.207926    -8.585775    11.243675    24.345320    -9.565960    -6.842447    -24.437412    -15.378995    0.000000    0.000000    0.000000    
0.136342    0.864298    0.302120    -1.380188    -0.836207    -137.375748    4.009621    9.626373    4.830494    -7.367457    4.286901    1.997912    2.777386    -0.061390    -15.840761    -1.144336    -1.300680    -15.864674    6.850517    -3.400982    -26.228519    -34.286121    56.579788    -45.296486    -0.280695    -5.576706    -12.545638    105.439804    -15.471066    7.717457    -4.695293    -18.914539    29.698772    38.604057    50.188995    49.556263    12.712420    -7.251962    94.659134    -70.289742    0.754296    -20.850225    6.874920    -12.111308    3.745506    -13.528666    24.996637    17.098852    0.373744    -17.868715    11.804470    0.000000    0.000000    0.000000    -4.066348    -5.959318    -9.396523    10.988191    25.140081    -8.780033    -6.323549    -24.532728    -15.252087    0.000000    0.000000    0.000000    
0.131703    0.864463    0.296474    -1.443695    -0.527032    -137.101852    3.812890    9.304124    5.330593    -7.456857    4.373460    2.164337    3.089006    0.210577    -16.377979    -1.045014    -1.449726    -16.383341    6.812726    -3.290455    -26.078857    -34.916893    56.179024    -44.449051    -0.927684    -5.423742    -12.205608    105.265511    -15.141592    7.563497    -4.685230    -19.182768    29.817488    38.457314    50.810486    49.849648    12.583776    -7.894705    94.464920    -69.598770    0.329249    -21.206234    7.060305    -11.255160    3.885613    -13.476550    24.854033    16.471001    -0.009750    -18.244011    11.960768    0.000000    0.000000    0.000000    -4.192931    -5.416029    -8.919500    11.759844    25.650059    -9.871037    -5.636093    -24.495403    -14.637576    0.000000    0.000000    0.000000    
0.126497    0.865413    0.291682    -1.724185    -0.297752    -136.692001    3.607264    9.216289    5.685905    -7.682762    4.367686    2.284310    3.352254    0.333067    -16.792545    -0.958485    -1.377115    -16.781248    6.866021    -3.376245    -26.060558    -35.721676    56.396770    -43.654133    -1.177697    -5.269145    -11.383217    105.453110    -15.416304    7.490345    -4.772901    -19.255091    29.848772    38.702847    50.871979    49.983532    12.410547    -7.928176    94.167656    -69.836647    0.453583    -21.013659    6.688457    -10.143544    3.961510    -12.851823    24.338223    16.104012    -0.307387    -18.435740    11.562183    0.000000    0.000000    0.000000    -4.930208    -5.134079    -9.303937    12.811489    26.946384    -10.410046    -4.435994    -24.160826    -14.308855    0.000000    0.000000    0.000000    
0.122212    0.866167    0.286753    -1.700965    -0.053874    -136.439896    3.490880    8.945201    6.186471    -7.733432    4.448782    2.452632    3.609809    0.504360    -17.284149    -0.866710    -1.416696    -17.258890    6.923566    -2.939027    -25.849075    -35.990681    55.868183    -43.314049    -1.513259    -5.442533    -10.787414    105.144043    -15.420814    7.647116    -4.735886    -19.169487    29.793158    38.354427    50.755806    50.539516    12.625790    -7.798583    93.838867    -69.837578    0.227546    -20.999132    6.588519    -9.238458    4.572997    -11.916102    23.846426    15.487307    -0.635872    -18.659492    10.836742    0.000000    0.000000    0.000000    -5.645885    -5.510866    -10.155513    13.990717    29.091545    -10.744121    -3.101570    -23.234762    -13.656680    0.000000    0.000000    0.000000    
